# xmcd CD database file
# Copyright (C) 1997 Ti Kan
#
# Track frame offsets:
#  150
#  9525
#  21542
#  30330
#  45760
#  56812
#  66275
#  80400
#  93697
#  106080
#  116160
#  128462
#
# Disc length: 1900 seconds
#
# Revision: 1
# Processed by: cddbd v1.4b41PL1 Copyright (c) Steve Scherf et al.
# Submitted via: CDWizzard Release:4.31
#
DISCID=93076a0c
DTITLE=Riders In The Sky - Saddle Pals
DYEAR=1900
DGENRE=
TTITLE0=Yippie-Yi_Yo And Away We Go
TTITLE1=The Old Chisholm Trail
TTITLE2=Get Along Little Dogies
TTITLE3=Biscuit Blues
TTITLE4=Sweet Betsy From Pike
TTITLE5=There's A Great Big Candy Roundup
TTITLE6=I'm Going To Leave Old Texas Now
TTITLE7=The Cowboy's ABC
TTITLE8=Clementine
TTITLE9="One, Two, Three" Said The Miner
TTITLE10=Fiddle Medley
TTITLE11=Down The Lullabye Trail
EXTD=
EXTT0=Riders In The Sky
EXTT1=Riders In The Sky
EXTT2=Riders In The Sky
EXTT3=Riders In The Sky
EXTT4=Riders In The Sky
EXTT5=Riders In The Sky
EXTT6=Riders In The Sky
EXTT7=Riders In The Sky
EXTT8=Riders In The Sky
EXTT9=Riders In The Sky
EXTT10=Riders In The Sky
EXTT11=Riders In The Sky
PLAYORDER=
